<svg xmlns="http://www.w3.org/2000/svg" xmlns:xlink="http://www.w3.org/1999/xlink" width="100" height="97.037" viewBox="0 0 100 97.037">
  <defs>
    <clipPath id="clip-path">
      <rect id="Rectangle_17721" data-name="Rectangle 17721" width="37.24" height="64.86" fill="#eeaa2e"/>
    </clipPath>
  </defs>
  <g id="login_logo" transform="translate(0.493)">
    <g id="Group_61280" data-name="Group 61280" transform="translate(13.922 0)">
      <g id="Group_61276" data-name="Group 61276" transform="translate(0 4.67)">
        <g id="Group_61281" data-name="Group 61281">
          <path id="Path_112152" data-name="Path 112152" d="M89.53,92.875a16.5,16.5,0,0,0-4.381-2.531c-4.527-1.819-9.347-2.373-14.093-2.689-2.191-.158-4.381-.158-6.426-.158a81.389,81.389,0,0,0-10.369.475,44.338,44.338,0,0,0-9.128,1.9,17.137,17.137,0,0,0-5.769,3.006c-.145.158-.365.237-.291.554.291,2.294.584,4.667.656,6.961,0,.4.074.633.512.316a8.007,8.007,0,0,1,1.753-1.028,26.459,26.459,0,0,1,6.133-1.819,86.524,86.524,0,0,1,14.459-1.266c2.848-.079,5.623,0,8.47.158a69.085,69.085,0,0,1,11.026,1.424,17.792,17.792,0,0,1,6.718,2.61c.365.237.365.079.437-.237s.074-1.186.146-1.819.293-3.322.512-4.983a.817.817,0,0,0-.365-.87" transform="translate(-28.809 -49.849)" fill="#f2e62a"/>
          <path id="Path_112153" data-name="Path 112153" d="M42.024,79.078a31.921,31.921,0,0,1,6.718-2.057,83.571,83.571,0,0,1,17.452-1.345,89.071,89.071,0,0,1,10.15.633,40.568,40.568,0,0,1,11.391,2.768c.365.158.439,0,.511-.316l1.1-3.006c.146-.4.073-.475-.292-.475a10.676,10.676,0,0,1-3.943-1.266,10.263,10.263,0,0,1-4.527-5.774c-.147-.475-.293-.475-.585-.158a12.774,12.774,0,0,1-2.556,2.136c-2.994,1.977-6.134,1.819-8.69-.475a12.127,12.127,0,0,1-3.286-4.983L64.88,63.1l-.219.712a13.067,13.067,0,0,1-3.286,5.616,6.552,6.552,0,0,1-7.229,1.661,11.614,11.614,0,0,1-4.235-2.927c-.511-.554-.511-.554-.8.237a10.994,10.994,0,0,1-3.14,4.667,9.848,9.848,0,0,1-5.331,2.215c-.438.079-.438.237-.292.554s.73,1.9,1.022,2.927.292.475.657.316" transform="translate(-29.133 -44.753)" fill="#f2e62a"/>
          <path id="Path_112154" data-name="Path 112154" d="M92.33,66.676l-.73.316a11.241,11.241,0,0,1-3.578,1.5,4.406,4.406,0,0,1-4.746-1.74,16.766,16.766,0,0,1-2.336-4.192,12.005,12.005,0,0,0-.876-1.977,1.887,1.887,0,0,0-2.7-.712,3.366,3.366,0,0,0-1.023.949,15.751,15.751,0,0,1-2.993,3.243c-1.972,1.5-3.87,1.186-5.331-.87a16.641,16.641,0,0,1-1.753-3.322c-.876-2.057-1.314-4.35-2.044-6.486a1.936,1.936,0,0,0-3.8,0c-.365,1.028-.584,2.057-.949,3.164A24.3,24.3,0,0,1,56.915,62.8c-1.826,2.927-4.162,2.689-6.207.87a19.855,19.855,0,0,1-2.482-2.927c-1.315-1.74-3.141-1.5-4.016.554l-.22.633a17.875,17.875,0,0,1-2.556,4.825,4.317,4.317,0,0,1-3.943,1.9,9.925,9.925,0,0,1-4.454-1.661,2.157,2.157,0,0,0-1.022-.4c-.73-.079-1.1.475-.949,1.266l.218.554,3.871,10.125c.218.554.365.633.8.237l.876-.633c.365-.158.365-.4.219-.791l-.584-1.661-1.972-5.3c-.072,0-.072-.079,0-.158h.073l.8.237a6.724,6.724,0,0,0,7.521-2.057,15.057,15.057,0,0,0,2.483-4.192l.949-2.373.439.554a30.532,30.532,0,0,0,2.556,2.689,7.257,7.257,0,0,0,4.308,2.057c2.118.158,3.651-1.028,4.82-2.768A21.79,21.79,0,0,0,61.443,57.9l.876-3.085a14.7,14.7,0,0,1,.585,1.977,23.342,23.342,0,0,0,3.505,7.831,5.439,5.439,0,0,0,4.6,2.61,6.641,6.641,0,0,0,3.8-1.582A21.609,21.609,0,0,0,77.945,62.4c.293-.4.439-.4.658.158a19.789,19.789,0,0,0,2.556,5.22c1.679,2.294,3.8,3.48,6.572,3.085l2.337-.554h.072c.073.079,0,.079,0,.158l-.218.554c-.877,2.136-1.607,4.271-2.41,6.407-.146.4-.146.554.219.791l1.022.712c.365.316.511.237.657-.237l2.483-6.486,1.533-4.034a1.1,1.1,0,0,0-.072-1.186.905.905,0,0,0-1.023-.316" transform="translate(-26.644 -42.396)" fill="#f2e62a"/>
          <path id="Path_112155" data-name="Path 112155" d="M90.1,87.149A15.822,15.822,0,0,0,85.722,84.7,42.766,42.766,0,0,0,76.3,82.482,70.071,70.071,0,0,0,68.2,81.77c-2.7-.079-4.235-.158-6.353-.079s-6.134.237-9.2.633a49.558,49.558,0,0,0-8.324,1.582,18.735,18.735,0,0,0-6.572,3.164,2.152,2.152,0,0,0-.876,1.424,1.311,1.311,0,0,0,.511,1.266.553.553,0,0,0,.8-.079,17.733,17.733,0,0,1,7.375-3.718c5.477-1.582,11.172-1.9,16.795-2.057a91.7,91.7,0,0,1,11.027.475,49.363,49.363,0,0,1,8.982,1.582,18.21,18.21,0,0,1,7.155,3.559c.293.237.584.554.949.316a1.368,1.368,0,0,0,.584-1.107,2.315,2.315,0,0,0-.949-1.582" transform="translate(-28.215 -48.632)" fill="#f2e62a"/>
          <path id="Path_112156" data-name="Path 112156" d="M88.885,105.95a10.681,10.681,0,0,0-3.942-2.057A50.347,50.347,0,0,0,72.6,101.916l-7.959-.316H61.429a87.18,87.18,0,0,0-11.683.87,28.39,28.39,0,0,0-6.791,1.74,7.294,7.294,0,0,0-2.921,1.9,1.226,1.226,0,0,0-.388.853,1.245,1.245,0,0,0,.315.887.984.984,0,0,0,.784.336,1,1,0,0,0,.75-.415,5.583,5.583,0,0,1,1.753-1.186,22.133,22.133,0,0,1,5.623-1.5,93.638,93.638,0,0,1,13.8-1.107c2.922-.079,5.915,0,8.836.158A65.987,65.987,0,0,1,82.021,105.4c2.117.475,4.235.87,5.842,2.531a.9.9,0,0,0,1.314-.079,1.174,1.174,0,0,0,.147-1.5Z" transform="translate(-28.967 -52.8)" fill="#f2e62a"/>
          <path id="Path_112157" data-name="Path 112157" d="M86.378,110.38a5.083,5.083,0,0,0-2.848-.4,86.558,86.558,0,0,1-12.56.949c-3.8.079-7.667.079-11.464-.079a86.445,86.445,0,0,1-10.369-.87,5.488,5.488,0,0,0-2.775.316c-.293.079-.585.237-.585.633s.365.475.585.554l1.387.4a76.075,76.075,0,0,0,12.194,1.186h6.645a95.053,95.053,0,0,0,16.138-.87,16.46,16.46,0,0,0,3.651-.791.842.842,0,0,0,.584-.554c.072-.316-.365-.4-.584-.475" transform="translate(-30.622 -54.541)" fill="#f2e62a"/>
          <path id="Path_112158" data-name="Path 112158" d="M72.69,47.178A3.345,3.345,0,0,0,75.9,45.045a3.868,3.868,0,0,0-.633-4.017,3.179,3.179,0,0,0-3.677-.863,3.651,3.651,0,0,0-2.11,3.374,3.447,3.447,0,0,0,3.213,3.639" transform="translate(-37.015 -39.904)" fill="#f2e62a"/>
          <path id="Path_112159" data-name="Path 112159" d="M49.009,57.6a3.205,3.205,0,0,0,2.41-3.4,3.491,3.491,0,0,0-.219-1.424c-.8-2.215-3.067-3.085-4.673-1.74a3.568,3.568,0,0,0-1.1,3.639A3.34,3.34,0,0,0,49.009,57.6" transform="translate(-30.495 -42.096)" fill="#f2e62a"/>
          <path id="Path_112160" data-name="Path 112160" d="M97.072,57.717h.73A3.806,3.806,0,0,0,99.98,55.4a4.249,4.249,0,0,0-.207-3.3,2.816,2.816,0,0,0-1.687-1.408,2.587,2.587,0,0,0-2.11.3,3.875,3.875,0,0,0-1.826,2.768,3.448,3.448,0,0,0,.583,2.738,2.913,2.913,0,0,0,2.338,1.217" transform="translate(-43.653 -42.138)" fill="#f2e62a"/>
          <path id="Path_112161" data-name="Path 112161" d="M120.433,61.1a2.665,2.665,0,0,0-1.736-1.43,2.472,2.472,0,0,0-2.135.481,3.757,3.757,0,0,0-1.387,3.164v.475a2.975,2.975,0,0,0,1.3,2.4,2.52,2.52,0,0,0,2.566.132,4.052,4.052,0,0,0,1.388-5.22" transform="translate(-49.343 -44.022)" fill="#f2e62a"/>
          <path id="Path_112162" data-name="Path 112162" d="M30.685,63.156a3.818,3.818,0,0,0-.876-2.531,2.589,2.589,0,0,0-2.531-1,2.768,2.768,0,0,0-2.069,1.868,4.186,4.186,0,0,0,.949,4.113,2.514,2.514,0,0,0,2.337.87c1.314-.237,2.191-1.424,2.191-3.322" transform="translate(-25.022 -44.018)" fill="#f2e62a"/>
        </g>
      </g>
      <g id="Group_61278" data-name="Group 61278" transform="translate(35.747)">
        <g id="Group_61277" data-name="Group 61277" transform="translate(0)" clip-path="url(#clip-path)">
          <path id="Path_112163" data-name="Path 112163" d="M89.53,92.875a16.5,16.5,0,0,0-4.381-2.531c-4.527-1.819-9.347-2.373-14.093-2.689-2.191-.158-4.381-.158-6.426-.158a81.389,81.389,0,0,0-10.369.475,44.338,44.338,0,0,0-9.128,1.9,17.137,17.137,0,0,0-5.769,3.006c-.145.158-.365.237-.291.554.291,2.294.584,4.667.656,6.961,0,.4.074.633.512.316a8.007,8.007,0,0,1,1.753-1.028,26.459,26.459,0,0,1,6.133-1.819,86.524,86.524,0,0,1,14.459-1.266c2.848-.079,5.623,0,8.47.158a69.085,69.085,0,0,1,11.026,1.424,17.792,17.792,0,0,1,6.718,2.61c.365.237.365.079.437-.237s.074-1.186.146-1.819.293-3.322.512-4.983a.817.817,0,0,0-.365-.87" transform="translate(-64.556 -45.179)" fill="#eeaa2e"/>
          <path id="Path_112164" data-name="Path 112164" d="M42.024,79.078a31.921,31.921,0,0,1,6.718-2.057,83.571,83.571,0,0,1,17.452-1.345,89.071,89.071,0,0,1,10.15.633,40.568,40.568,0,0,1,11.391,2.768c.365.158.439,0,.511-.316l1.1-3.006c.146-.4.073-.475-.292-.475a10.676,10.676,0,0,1-3.943-1.266,10.263,10.263,0,0,1-4.527-5.774c-.147-.475-.293-.475-.585-.158a12.774,12.774,0,0,1-2.556,2.136c-2.994,1.977-6.134,1.819-8.69-.475a12.127,12.127,0,0,1-3.286-4.983L64.88,63.1l-.219.712a13.067,13.067,0,0,1-3.286,5.616,6.552,6.552,0,0,1-7.229,1.661,11.614,11.614,0,0,1-4.235-2.927c-.511-.554-.511-.554-.8.237a10.994,10.994,0,0,1-3.14,4.667,9.848,9.848,0,0,1-5.331,2.215c-.438.079-.438.237-.292.554s.73,1.9,1.022,2.927.292.475.657.316" transform="translate(-64.88 -40.082)" fill="#eeaa2e"/>
          <path id="Path_112165" data-name="Path 112165" d="M92.33,66.676l-.73.316a11.241,11.241,0,0,1-3.578,1.5,4.406,4.406,0,0,1-4.746-1.74,16.766,16.766,0,0,1-2.336-4.192,12.005,12.005,0,0,0-.876-1.977,1.887,1.887,0,0,0-2.7-.712,3.366,3.366,0,0,0-1.023.949,15.751,15.751,0,0,1-2.993,3.243c-1.972,1.5-3.87,1.186-5.331-.87a16.641,16.641,0,0,1-1.753-3.322c-.876-2.057-1.314-4.35-2.044-6.486a1.936,1.936,0,0,0-3.8,0c-.365,1.028-.584,2.057-.949,3.164A24.3,24.3,0,0,1,56.915,62.8c-1.826,2.927-4.162,2.689-6.207.87a19.855,19.855,0,0,1-2.482-2.927c-1.315-1.74-3.141-1.5-4.016.554l-.22.633a17.875,17.875,0,0,1-2.556,4.825,4.319,4.319,0,0,1-3.943,1.9,9.925,9.925,0,0,1-4.454-1.661,2.157,2.157,0,0,0-1.022-.4c-.73-.079-1.1.475-.949,1.266l.218.554,3.871,10.125c.218.554.365.633.8.237l.876-.633c.365-.158.365-.4.219-.791l-.584-1.661-1.972-5.3c-.072,0-.072-.079,0-.158h.073l.8.237a6.724,6.724,0,0,0,7.521-2.057,15.057,15.057,0,0,0,2.483-4.192l.949-2.373.439.554a30.532,30.532,0,0,0,2.556,2.689,7.257,7.257,0,0,0,4.308,2.057c2.118.158,3.651-1.028,4.82-2.768A21.79,21.79,0,0,0,61.443,57.9l.876-3.085a14.7,14.7,0,0,1,.585,1.977,23.342,23.342,0,0,0,3.505,7.831,5.439,5.439,0,0,0,4.6,2.61,6.641,6.641,0,0,0,3.8-1.582A21.609,21.609,0,0,0,77.945,62.4c.293-.4.439-.4.658.158a19.789,19.789,0,0,0,2.556,5.22c1.679,2.294,3.8,3.48,6.572,3.085l2.337-.554h.072c.073.079,0,.079,0,.158l-.218.554c-.877,2.136-1.607,4.271-2.41,6.407-.146.4-.146.554.219.791l1.022.712c.365.316.511.237.657-.237l2.483-6.486,1.533-4.034a1.1,1.1,0,0,0-.072-1.186.905.905,0,0,0-1.023-.316" transform="translate(-62.392 -37.726)" fill="#eeaa2e"/>
          <path id="Path_112166" data-name="Path 112166" d="M90.1,87.149A15.822,15.822,0,0,0,85.722,84.7,42.766,42.766,0,0,0,76.3,82.482,70.071,70.071,0,0,0,68.2,81.77c-2.7-.079-4.235-.158-6.353-.079s-6.134.237-9.2.633a49.558,49.558,0,0,0-8.324,1.582,18.735,18.735,0,0,0-6.572,3.164,2.152,2.152,0,0,0-.876,1.424,1.311,1.311,0,0,0,.511,1.266.553.553,0,0,0,.8-.079,17.733,17.733,0,0,1,7.375-3.718c5.477-1.582,11.172-1.9,16.795-2.057a91.7,91.7,0,0,1,11.027.475,49.3,49.3,0,0,1,8.982,1.582,18.21,18.21,0,0,1,7.155,3.559c.293.237.584.554.949.316a1.368,1.368,0,0,0,.584-1.107,2.315,2.315,0,0,0-.949-1.582" transform="translate(-63.962 -43.962)" fill="#eeaa2e"/>
          <path id="Path_112167" data-name="Path 112167" d="M88.885,105.95a10.681,10.681,0,0,0-3.942-2.057A50.347,50.347,0,0,0,72.6,101.916l-7.959-.316H61.429a87.18,87.18,0,0,0-11.683.87,28.39,28.39,0,0,0-6.791,1.74,7.294,7.294,0,0,0-2.921,1.9,1.226,1.226,0,0,0-.388.853,1.245,1.245,0,0,0,.315.887.984.984,0,0,0,.784.336,1,1,0,0,0,.75-.415,5.583,5.583,0,0,1,1.753-1.186,22.133,22.133,0,0,1,5.623-1.5,93.638,93.638,0,0,1,13.8-1.107c2.922-.079,5.915,0,8.836.158A65.987,65.987,0,0,1,82.021,105.4c2.117.475,4.235.87,5.842,2.531a.9.9,0,0,0,1.314-.079,1.174,1.174,0,0,0,.147-1.5Z" transform="translate(-64.715 -48.13)" fill="#eeaa2e"/>
          <path id="Path_112168" data-name="Path 112168" d="M86.378,110.38a5.083,5.083,0,0,0-2.848-.4,86.558,86.558,0,0,1-12.56.949c-3.8.079-7.667.079-11.464-.079a86.445,86.445,0,0,1-10.369-.87,5.488,5.488,0,0,0-2.775.316c-.293.079-.585.237-.585.633s.365.475.585.554l1.387.4a76.075,76.075,0,0,0,12.194,1.186h6.645a95.053,95.053,0,0,0,16.138-.87,16.46,16.46,0,0,0,3.651-.791.842.842,0,0,0,.584-.554c.072-.316-.365-.4-.584-.475" transform="translate(-66.369 -49.87)" fill="#eeaa2e"/>
          <path id="Path_112169" data-name="Path 112169" d="M72.69,47.178A3.345,3.345,0,0,0,75.9,45.045a3.868,3.868,0,0,0-.633-4.017,3.179,3.179,0,0,0-3.677-.863,3.651,3.651,0,0,0-2.11,3.374,3.447,3.447,0,0,0,3.213,3.639" transform="translate(-72.763 -35.234)" fill="#eeaa2e"/>
          <path id="Path_112170" data-name="Path 112170" d="M97.072,57.717h.73A3.806,3.806,0,0,0,99.98,55.4a4.249,4.249,0,0,0-.207-3.3,2.816,2.816,0,0,0-1.687-1.408,2.587,2.587,0,0,0-2.11.3,3.875,3.875,0,0,0-1.826,2.768,3.448,3.448,0,0,0,.583,2.738,2.913,2.913,0,0,0,2.338,1.217" transform="translate(-79.4 -37.467)" fill="#eeaa2e"/>
          <path id="Path_112171" data-name="Path 112171" d="M120.433,61.1a2.665,2.665,0,0,0-1.736-1.43,2.472,2.472,0,0,0-2.135.481,3.757,3.757,0,0,0-1.387,3.164v.475a2.975,2.975,0,0,0,1.3,2.4,2.52,2.52,0,0,0,2.566.132,4.052,4.052,0,0,0,1.388-5.22" transform="translate(-85.09 -39.352)" fill="#eeaa2e"/>
        </g>
      </g>
    </g>
    <text id="LOL_Chat" data-name="LOL  Chat" transform="translate(-0.493 92.037)" fill="#222" font-size="20" font-family="SegoeUI-Bold, Segoe UI" font-weight="700" letter-spacing="0.009em"><tspan x="0" y="0" xml:space="preserve">LOL  CHAT</tspan></text>
  </g>
</svg>
