<svg xmlns="http://www.w3.org/2000/svg" xmlns:xlink="http://www.w3.org/1999/xlink" width="137.507" height="27" viewBox="0 0 137.507 27">
  <defs>
    <clipPath id="clip-path">
      <rect id="Rectangle_17721" data-name="Rectangle 17721" width="15.502" height="27" fill="#eeaa2e"/>
    </clipPath>
  </defs>
  <g id="inner_logo" transform="translate(-36 -18.037)">
    <g id="Group_61280" data-name="Group 61280" transform="translate(36 18.037)">
      <g id="Group_61276" data-name="Group 61276" transform="translate(0 1.944)">
        <g id="Group_61281" data-name="Group 61281">
          <path id="Path_112152" data-name="Path 112152" d="M60.068,89.728a6.87,6.87,0,0,0-1.824-1.054,18.943,18.943,0,0,0-5.867-1.12c-.912-.066-1.824-.066-2.675-.066a33.88,33.88,0,0,0-4.316.2,18.457,18.457,0,0,0-3.8.79,7.134,7.134,0,0,0-2.4,1.251c-.06.066-.152.1-.121.23.121.955.243,1.943.273,2.9,0,.165.031.263.213.132a3.333,3.333,0,0,1,.73-.428,11.014,11.014,0,0,1,2.553-.757,36.017,36.017,0,0,1,6.019-.527c1.185-.033,2.341,0,3.526.066a28.759,28.759,0,0,1,4.59.593,7.407,7.407,0,0,1,2.8,1.087c.152.1.152.033.182-.1s.031-.494.061-.757.122-1.383.213-2.074a.34.34,0,0,0-.152-.362" transform="translate(-34.791 -71.817)" fill="#f2e62a"/>
          <path id="Path_112153" data-name="Path 112153" d="M40.993,69.751a13.288,13.288,0,0,1,2.8-.856,34.79,34.79,0,0,1,7.265-.56,37.078,37.078,0,0,1,4.225.263,16.888,16.888,0,0,1,4.742,1.152c.152.066.183,0,.213-.132l.456-1.251c.061-.165.03-.2-.122-.2a4.444,4.444,0,0,1-1.641-.527,4.272,4.272,0,0,1-1.884-2.4c-.061-.2-.122-.2-.243-.066a5.318,5.318,0,0,1-1.064.889,2.784,2.784,0,0,1-3.617-.2,5.048,5.048,0,0,1-1.368-2.074l-.243-.691-.091.3a5.44,5.44,0,0,1-1.368,2.338,2.727,2.727,0,0,1-3.009.691,4.835,4.835,0,0,1-1.763-1.218c-.213-.23-.213-.23-.334.1a4.576,4.576,0,0,1-1.307,1.943,4.1,4.1,0,0,1-2.219.922c-.182.033-.182.1-.122.23s.3.79.426,1.218.122.2.274.132" transform="translate(-35.626 -55.462)" fill="#f2e62a"/>
          <path id="Path_112154" data-name="Path 112154" d="M56.55,58.009l-.3.132a4.679,4.679,0,0,1-1.489.626,1.834,1.834,0,0,1-1.976-.724,6.979,6.979,0,0,1-.972-1.745,5,5,0,0,0-.365-.823.785.785,0,0,0-1.125-.3,1.4,1.4,0,0,0-.426.4,6.557,6.557,0,0,1-1.246,1.35,1.406,1.406,0,0,1-2.219-.362,6.927,6.927,0,0,1-.73-1.383c-.365-.856-.547-1.811-.851-2.7a.806.806,0,0,0-1.581,0c-.152.428-.243.856-.4,1.317a10.117,10.117,0,0,1-1.064,2.6,1.52,1.52,0,0,1-2.584.362,8.266,8.266,0,0,1-1.033-1.218c-.547-.724-1.307-.626-1.672.23l-.091.263a7.441,7.441,0,0,1-1.064,2.009,1.8,1.8,0,0,1-1.641.79,4.132,4.132,0,0,1-1.854-.691.9.9,0,0,0-.426-.165c-.3-.033-.456.2-.395.527l.091.23,1.611,4.215c.091.23.152.263.334.1l.365-.263c.152-.066.152-.165.091-.329l-.243-.691-.821-2.206c-.03,0-.03-.033,0-.066h.03l.334.1a2.8,2.8,0,0,0,3.131-.856,6.268,6.268,0,0,0,1.034-1.745L37.4,56l.183.23a12.709,12.709,0,0,0,1.064,1.12,3.021,3.021,0,0,0,1.793.856,2.189,2.189,0,0,0,2.007-1.152,9.071,9.071,0,0,0,1.246-2.7l.364-1.284a6.12,6.12,0,0,1,.243.823,9.717,9.717,0,0,0,1.459,3.26,2.264,2.264,0,0,0,1.915,1.087,2.764,2.764,0,0,0,1.581-.659,9,9,0,0,0,1.307-1.35c.122-.165.183-.165.274.066A8.238,8.238,0,0,0,51.9,58.47a2.748,2.748,0,0,0,2.736,1.284l.973-.23h.03c.03.033,0,.033,0,.066l-.091.23c-.365.889-.669,1.778-1,2.667-.061.165-.061.23.091.329l.425.3c.152.132.213.1.274-.1l1.034-2.7.638-1.679a.457.457,0,0,0-.03-.494.377.377,0,0,0-.426-.132" transform="translate(-29.207 -47.902)" fill="#f2e62a"/>
          <path id="Path_112155" data-name="Path 112155" d="M59.021,83.944A6.587,6.587,0,0,0,57.2,82.923,17.8,17.8,0,0,0,53.277,82a29.17,29.17,0,0,0-3.374-.3c-1.125-.033-1.763-.066-2.645-.033s-2.553.1-3.83.263a20.63,20.63,0,0,0-3.465.659,7.8,7.8,0,0,0-2.736,1.317.9.9,0,0,0-.365.593.546.546,0,0,0,.213.527A.23.23,0,0,0,37.409,85a7.382,7.382,0,0,1,3.07-1.548,27.873,27.873,0,0,1,6.991-.856,38.177,38.177,0,0,1,4.59.2,20.549,20.549,0,0,1,3.739.659,7.58,7.58,0,0,1,2.979,1.482c.122.1.243.23.4.132a.57.57,0,0,0,.243-.461.964.964,0,0,0-.4-.659" transform="translate(-33.258 -67.91)" fill="#f2e62a"/>
          <path id="Path_112156" data-name="Path 112156" d="M60.142,103.411a4.446,4.446,0,0,0-1.641-.856,20.958,20.958,0,0,0-5.137-.823L50.05,101.6H48.713a36.291,36.291,0,0,0-4.864.362,11.819,11.819,0,0,0-2.827.724,3.037,3.037,0,0,0-1.216.79.51.51,0,0,0-.161.355.518.518,0,0,0,.131.369.41.41,0,0,0,.326.14.416.416,0,0,0,.312-.173,2.324,2.324,0,0,1,.73-.494,9.214,9.214,0,0,1,2.341-.626,38.981,38.981,0,0,1,5.745-.461c1.216-.033,2.462,0,3.678.066a27.468,27.468,0,0,1,4.378.527,4.456,4.456,0,0,1,2.432,1.054.373.373,0,0,0,.547-.033.489.489,0,0,0,.061-.626Z" transform="translate(-35.2 -81.286)" fill="#f2e62a"/>
          <path id="Path_112157" data-name="Path 112157" d="M62.678,110.116a2.116,2.116,0,0,0-1.185-.165,36.035,36.035,0,0,1-5.229.4c-1.581.033-3.192.033-4.772-.033a35.987,35.987,0,0,1-4.316-.362,2.285,2.285,0,0,0-1.155.132c-.122.033-.243.1-.243.263s.152.2.243.23l.578.165a31.669,31.669,0,0,0,5.076.494H54.44a39.569,39.569,0,0,0,6.718-.362,6.853,6.853,0,0,0,1.52-.329.351.351,0,0,0,.243-.23c.03-.132-.152-.165-.243-.2" transform="translate(-39.468 -86.871)" fill="#f2e62a"/>
          <path id="Path_112158" data-name="Path 112158" d="M70.814,42.932a1.392,1.392,0,0,0,1.335-.888,1.61,1.61,0,0,0-.264-1.672,1.323,1.323,0,0,0-1.53-.359,1.52,1.52,0,0,0-.878,1.4,1.435,1.435,0,0,0,1.337,1.515" transform="translate(-55.963 -39.904)" fill="#f2e62a"/>
          <path id="Path_112159" data-name="Path 112159" d="M46.848,53.391a1.334,1.334,0,0,0,1-1.416,1.453,1.453,0,0,0-.091-.593,1.234,1.234,0,0,0-1.945-.724,1.485,1.485,0,0,0-.456,1.515,1.39,1.39,0,0,0,1.489,1.218" transform="translate(-39.141 -46.939)" fill="#f2e62a"/>
          <path id="Path_112160" data-name="Path 112160" d="M95.324,53.556h.3a1.584,1.584,0,0,0,.907-.964,1.769,1.769,0,0,0-.086-1.373,1.172,1.172,0,0,0-.7-.586,1.077,1.077,0,0,0-.878.125,1.613,1.613,0,0,0-.76,1.152,1.435,1.435,0,0,0,.243,1.14,1.213,1.213,0,0,0,.973.507" transform="translate(-73.087 -47.071)" fill="#f2e62a"/>
          <path id="Path_112161" data-name="Path 112161" d="M117.361,60.228a1.11,1.11,0,0,0-.723-.6,1.029,1.029,0,0,0-.889.2,1.564,1.564,0,0,0-.577,1.317v.2a1.238,1.238,0,0,0,.543,1,1.049,1.049,0,0,0,1.068.055,1.687,1.687,0,0,0,.578-2.173" transform="translate(-87.768 -53.117)" fill="#f2e62a"/>
          <path id="Path_112162" data-name="Path 112162" d="M27.38,61.071a1.589,1.589,0,0,0-.365-1.054,1.078,1.078,0,0,0-1.054-.415,1.152,1.152,0,0,0-.861.777,1.743,1.743,0,0,0,.4,1.712,1.046,1.046,0,0,0,.973.362c.547-.1.912-.593.912-1.383" transform="translate(-25.022 -53.104)" fill="#f2e62a"/>
        </g>
      </g>
      <g id="Group_61278" data-name="Group 61278" transform="translate(14.881)">
        <g id="Group_61277" data-name="Group 61277" transform="translate(0)" clip-path="url(#clip-path)">
          <path id="Path_112163" data-name="Path 112163" d="M60.068,89.728a6.87,6.87,0,0,0-1.824-1.054,18.943,18.943,0,0,0-5.867-1.12c-.912-.066-1.824-.066-2.675-.066a33.88,33.88,0,0,0-4.316.2,18.457,18.457,0,0,0-3.8.79,7.134,7.134,0,0,0-2.4,1.251c-.06.066-.152.1-.121.23.121.955.243,1.943.273,2.9,0,.165.031.263.213.132a3.333,3.333,0,0,1,.73-.428,11.014,11.014,0,0,1,2.553-.757,36.017,36.017,0,0,1,6.019-.527c1.185-.033,2.341,0,3.526.066a28.759,28.759,0,0,1,4.59.593,7.407,7.407,0,0,1,2.8,1.087c.152.1.152.033.182-.1s.031-.494.061-.757.122-1.383.213-2.074a.34.34,0,0,0-.152-.362" transform="translate(-49.672 -69.873)" fill="#eeaa2e"/>
          <path id="Path_112164" data-name="Path 112164" d="M40.993,69.751a13.288,13.288,0,0,1,2.8-.856,34.79,34.79,0,0,1,7.265-.56,37.078,37.078,0,0,1,4.225.263,16.888,16.888,0,0,1,4.742,1.152c.152.066.183,0,.213-.132l.456-1.251c.061-.165.03-.2-.122-.2a4.444,4.444,0,0,1-1.641-.527,4.272,4.272,0,0,1-1.884-2.4c-.061-.2-.122-.2-.243-.066a5.318,5.318,0,0,1-1.064.889,2.784,2.784,0,0,1-3.617-.2,5.048,5.048,0,0,1-1.368-2.074l-.243-.691-.091.3a5.44,5.44,0,0,1-1.368,2.338,2.727,2.727,0,0,1-3.009.691,4.835,4.835,0,0,1-1.763-1.218c-.213-.23-.213-.23-.334.1a4.576,4.576,0,0,1-1.307,1.943,4.1,4.1,0,0,1-2.219.922c-.182.033-.182.1-.122.23s.3.79.426,1.218.122.2.274.132" transform="translate(-50.507 -53.518)" fill="#eeaa2e"/>
          <path id="Path_112165" data-name="Path 112165" d="M56.55,58.009l-.3.132a4.679,4.679,0,0,1-1.489.626,1.834,1.834,0,0,1-1.976-.724,6.979,6.979,0,0,1-.972-1.745,5,5,0,0,0-.365-.823.785.785,0,0,0-1.125-.3,1.4,1.4,0,0,0-.426.4,6.557,6.557,0,0,1-1.246,1.35,1.406,1.406,0,0,1-2.219-.362,6.927,6.927,0,0,1-.73-1.383c-.365-.856-.547-1.811-.851-2.7a.806.806,0,0,0-1.581,0c-.152.428-.243.856-.4,1.317a10.117,10.117,0,0,1-1.064,2.6,1.52,1.52,0,0,1-2.584.362,8.266,8.266,0,0,1-1.033-1.218c-.547-.724-1.307-.626-1.672.23l-.091.263a7.441,7.441,0,0,1-1.064,2.009,1.8,1.8,0,0,1-1.641.79,4.132,4.132,0,0,1-1.854-.691.9.9,0,0,0-.426-.165c-.3-.033-.456.2-.395.527l.091.23,1.611,4.215c.091.23.152.263.334.1l.365-.263c.152-.066.152-.165.091-.329l-.243-.691-.821-2.206c-.03,0-.03-.033,0-.066h.03l.334.1a2.8,2.8,0,0,0,3.131-.856,6.268,6.268,0,0,0,1.034-1.745L37.4,56l.183.23a12.709,12.709,0,0,0,1.064,1.12,3.021,3.021,0,0,0,1.793.856,2.189,2.189,0,0,0,2.007-1.152,9.071,9.071,0,0,0,1.246-2.7l.364-1.284a6.12,6.12,0,0,1,.243.823,9.717,9.717,0,0,0,1.459,3.26,2.264,2.264,0,0,0,1.915,1.087,2.764,2.764,0,0,0,1.581-.659,9,9,0,0,0,1.307-1.35c.122-.165.183-.165.274.066A8.238,8.238,0,0,0,51.9,58.47a2.748,2.748,0,0,0,2.736,1.284l.973-.23h.03c.03.033,0,.033,0,.066l-.091.23c-.365.889-.669,1.778-1,2.667-.061.165-.061.23.091.329l.425.3c.152.132.213.1.274-.1l1.034-2.7.638-1.679a.457.457,0,0,0-.03-.494.377.377,0,0,0-.426-.132" transform="translate(-44.088 -45.958)" fill="#eeaa2e"/>
          <path id="Path_112166" data-name="Path 112166" d="M59.021,83.944A6.587,6.587,0,0,0,57.2,82.923,17.8,17.8,0,0,0,53.277,82a29.17,29.17,0,0,0-3.374-.3c-1.125-.033-1.763-.066-2.645-.033s-2.553.1-3.83.263a20.63,20.63,0,0,0-3.465.659,7.8,7.8,0,0,0-2.736,1.317.9.9,0,0,0-.365.593.546.546,0,0,0,.213.527A.23.23,0,0,0,37.409,85a7.382,7.382,0,0,1,3.07-1.548,27.873,27.873,0,0,1,6.991-.856,38.177,38.177,0,0,1,4.59.2,20.521,20.521,0,0,1,3.739.659,7.58,7.58,0,0,1,2.979,1.482c.122.1.243.23.4.132a.57.57,0,0,0,.243-.461.964.964,0,0,0-.4-.659" transform="translate(-48.139 -65.966)" fill="#eeaa2e"/>
          <path id="Path_112167" data-name="Path 112167" d="M60.142,103.411a4.446,4.446,0,0,0-1.641-.856,20.958,20.958,0,0,0-5.137-.823L50.05,101.6H48.713a36.291,36.291,0,0,0-4.864.362,11.819,11.819,0,0,0-2.827.724,3.037,3.037,0,0,0-1.216.79.51.51,0,0,0-.161.355.518.518,0,0,0,.131.369.41.41,0,0,0,.326.14.416.416,0,0,0,.312-.173,2.324,2.324,0,0,1,.73-.494,9.214,9.214,0,0,1,2.341-.626,38.981,38.981,0,0,1,5.745-.461c1.216-.033,2.462,0,3.678.066a27.468,27.468,0,0,1,4.378.527,4.456,4.456,0,0,1,2.432,1.054.373.373,0,0,0,.547-.033.489.489,0,0,0,.061-.626Z" transform="translate(-50.081 -79.341)" fill="#eeaa2e"/>
          <path id="Path_112168" data-name="Path 112168" d="M62.678,110.116a2.116,2.116,0,0,0-1.185-.165,36.035,36.035,0,0,1-5.229.4c-1.581.033-3.192.033-4.772-.033a35.987,35.987,0,0,1-4.316-.362,2.285,2.285,0,0,0-1.155.132c-.122.033-.243.1-.243.263s.152.2.243.23l.578.165a31.669,31.669,0,0,0,5.076.494H54.44a39.569,39.569,0,0,0,6.718-.362,6.853,6.853,0,0,0,1.52-.329.351.351,0,0,0,.243-.23c.03-.132-.152-.165-.243-.2" transform="translate(-54.349 -84.927)" fill="#eeaa2e"/>
          <path id="Path_112169" data-name="Path 112169" d="M70.814,42.932a1.392,1.392,0,0,0,1.335-.888,1.61,1.61,0,0,0-.264-1.672,1.323,1.323,0,0,0-1.53-.359,1.52,1.52,0,0,0-.878,1.4,1.435,1.435,0,0,0,1.337,1.515" transform="translate(-70.844 -37.96)" fill="#eeaa2e"/>
          <path id="Path_112170" data-name="Path 112170" d="M95.324,53.556h.3a1.584,1.584,0,0,0,.907-.964,1.769,1.769,0,0,0-.086-1.373,1.172,1.172,0,0,0-.7-.586,1.077,1.077,0,0,0-.878.125,1.613,1.613,0,0,0-.76,1.152,1.435,1.435,0,0,0,.243,1.14,1.213,1.213,0,0,0,.973.507" transform="translate(-87.968 -45.127)" fill="#eeaa2e"/>
          <path id="Path_112171" data-name="Path 112171" d="M117.361,60.228a1.11,1.11,0,0,0-.723-.6,1.029,1.029,0,0,0-.889.2,1.564,1.564,0,0,0-.577,1.317v.2a1.238,1.238,0,0,0,.543,1,1.049,1.049,0,0,0,1.068.055,1.687,1.687,0,0,0,.578-2.173" transform="translate(-102.648 -51.173)" fill="#eeaa2e"/>
        </g>
      </g>
    </g>
    <text id="LOL_Chat" data-name="LOL  Chat" transform="translate(73.507 40.037)" fill="#fff" font-size="20" font-family="SegoeUI-Bold, Segoe UI" font-weight="700" letter-spacing="0.009em"><tspan x="0" y="0" xml:space="preserve">LOL  CHAT</tspan></text>
  </g>
</svg>
